<svg width="18" height="18" viewBox="0 0 18 18" fill="none" xmlns="http://www.w3.org/2000/svg">
<path d="M8.03587 1.60837H1.92873C1.75194 1.60837 1.6073 1.75301 1.6073 1.9298V8.03694C1.6073 8.21373 1.75194 8.35837 1.92873 8.35837H8.03587C8.21266 8.35837 8.3573 8.21373 8.3573 8.03694V1.9298C8.3573 1.75301 8.21266 1.60837 8.03587 1.60837ZM6.99123 6.9923H2.97337V2.97444H6.99123V6.9923ZM16.0716 1.60837H9.96444C9.78766 1.60837 9.64301 1.75301 9.64301 1.9298V8.03694C9.64301 8.21373 9.78766 8.35837 9.96444 8.35837H16.0716C16.2484 8.35837 16.393 8.21373 16.393 8.03694V1.9298C16.393 1.75301 16.2484 1.60837 16.0716 1.60837ZM15.0269 6.9923H11.0091V2.97444H15.0269V6.9923ZM8.03587 9.64408H1.92873C1.75194 9.64408 1.6073 9.78873 1.6073 9.96551V16.0727C1.6073 16.2494 1.75194 16.3941 1.92873 16.3941H8.03587C8.21266 16.3941 8.3573 16.2494 8.3573 16.0727V9.96551C8.3573 9.78873 8.21266 9.64408 8.03587 9.64408ZM6.99123 15.028H2.97337V11.0102H6.99123V15.028ZM16.0716 9.64408H9.96444C9.78766 9.64408 9.64301 9.78873 9.64301 9.96551V16.0727C9.64301 16.2494 9.78766 16.3941 9.96444 16.3941H16.0716C16.2484 16.3941 16.393 16.2494 16.393 16.0727V9.96551C16.393 9.78873 16.2484 9.64408 16.0716 9.64408ZM15.0269 15.028H11.0091V11.0102H15.0269V15.028Z" fill="#1890FF"/>
</svg>
