<svg width="28" height="28" viewBox="0 0 28 28" fill="none" xmlns="http://www.w3.org/2000/svg">
<path d="M14 2C20.6268 2 26 7.37321 26 14C26 20.6268 20.6268 26 14 26C7.37321 26 2 20.6268 2 14C2 7.37321 7.37321 2 14 2ZM14 4.03613C8.49821 4.03613 4.03613 8.49821 4.03613 14C4.03613 19.5018 8.49821 23.9639 14 23.9639C19.5018 23.9639 23.9639 19.5018 23.9639 14C23.9639 8.49821 19.5018 4.03613 14 4.03613ZM18.4297 9.5498C18.5474 9.5498 18.6443 9.646 18.6445 9.76367C18.6445 9.81456 18.6278 9.86582 18.5957 9.90332L15.1113 14.0547L18.5908 18.2041C18.623 18.2443 18.6416 18.2929 18.6416 18.3438C18.6415 18.464 18.5453 18.5574 18.4277 18.5576L16.6592 18.5498L14 15.3779L11.3398 18.5527L9.56934 18.5605C9.45163 18.5605 9.35571 18.4643 9.35547 18.3467C9.35604 18.2958 9.37388 18.2463 9.40625 18.207L12.8906 14.0576L9.40625 9.90625C9.37411 9.86607 9.35547 9.81749 9.35547 9.7666C9.35556 9.64615 9.45153 9.55273 9.56934 9.55273L11.3398 9.56055L14 12.7324L16.6621 9.55762L18.4297 9.5498Z" fill="#FF4D4F"/>
</svg>
