<svg width="18" height="18" viewBox="0 0 18 18" fill="none" xmlns="http://www.w3.org/2000/svg">
<path d="M9 2C12.8656 2 16 5.13438 16 9C16 12.8656 12.8656 16 9 16C5.13438 16 2 12.8656 2 9C2 5.13438 5.13438 2 9 2ZM11.1895 6.51562C11.0285 6.51562 10.8779 6.59395 10.7842 6.72363L8.32812 10.1299L7.21582 8.58594C7.12207 8.45469 6.96992 8.37793 6.81055 8.37793H6.07812C5.97667 8.37793 5.9175 8.49338 5.97656 8.57617L7.9248 11.2764C7.97071 11.3404 8.0315 11.3926 8.10156 11.4287C8.1718 11.4648 8.25013 11.4844 8.3291 11.4844C8.40798 11.4843 8.48549 11.4647 8.55566 11.4287C8.62589 11.3926 8.68643 11.3405 8.73242 11.2764L12.0234 6.71387C12.0827 6.63106 12.0234 6.51562 11.9219 6.51562H11.1895Z" fill="#52C41A"/>
</svg>
