<svg width="7" height="6" viewBox="0 0 7 6" fill="none" xmlns="http://www.w3.org/2000/svg">
<path d="M6.18799 2.40806C6.18799 2.19806 6.10399 2.01606 5.93599 1.87606C5.76799 1.73606 5.57199 1.65206 5.36199 1.65206C5.08199 1.65206 4.71799 1.86206 4.28399 2.26806C3.97599 2.56206 3.63999 2.78606 3.28999 2.92606C3.31799 2.53406 3.42999 2.15606 3.59799 1.79206C3.79399 1.35806 3.90599 1.05006 3.90599 0.868056C3.90599 0.630057 3.82199 0.420056 3.68199 0.252056C3.51399 0.084056 3.31799 5.62668e-05 3.09399 5.62668e-05C2.85599 5.62668e-05 2.65999 0.084056 2.50599 0.252056C2.35199 0.420056 2.28199 0.630057 2.28199 0.868056C2.28199 1.05006 2.37999 1.35806 2.58999 1.79206C2.75799 2.15606 2.85599 2.53406 2.89799 2.92606C2.53399 2.78606 2.21199 2.56206 1.90399 2.26806C1.45599 1.86206 1.10599 1.65206 0.825994 1.65206C0.601994 1.65206 0.419994 1.73606 0.251994 1.87606C0.0839941 2.01606 -5.84498e-06 2.19806 -5.84498e-06 2.40806C-5.84498e-06 2.68806 0.0979942 2.89806 0.293994 3.05206C0.489994 3.22006 0.727994 3.29006 1.00799 3.29006C1.07799 3.29006 1.24599 3.27606 1.49799 3.24806C1.74999 3.22006 1.94599 3.20606 2.07199 3.20606C2.28199 3.20606 2.51999 3.23406 2.77199 3.27606C2.54799 3.52806 2.22599 3.78006 1.83399 4.00406C1.49799 4.20006 1.28799 4.34006 1.17599 4.43806C0.979994 4.63406 0.881994 4.87206 0.881994 5.12406C0.881994 5.34806 0.951994 5.54406 1.10599 5.68406C1.25999 5.85206 1.45599 5.92206 1.67999 5.92206C2.16999 5.92206 2.50599 5.48806 2.67399 4.62006C2.75799 4.17206 2.89799 3.79406 3.09399 3.50006C3.27599 3.79406 3.41599 4.17206 3.51399 4.62006C3.68199 5.48806 4.00399 5.92206 4.50799 5.92206C4.73199 5.92206 4.91399 5.85206 5.08199 5.68406C5.22199 5.54406 5.30599 5.34806 5.30599 5.12406C5.30599 4.87206 5.20799 4.63406 5.01199 4.43806C4.89999 4.34006 4.67599 4.20006 4.35399 4.00406C3.94799 3.78006 3.63999 3.52806 3.41599 3.27606C3.66799 3.23406 3.89199 3.20606 4.11599 3.20606C4.22799 3.20606 4.42399 3.22006 4.68999 3.24806C4.94199 3.27606 5.09599 3.29006 5.17999 3.29006C5.44599 3.29006 5.68399 3.22006 5.89399 3.05206C6.08999 2.89806 6.18799 2.68806 6.18799 2.40806Z" fill="#FF4D4F"/>
</svg>
