<svg width="18" height="18" viewBox="0 0 18 18" fill="none" xmlns="http://www.w3.org/2000/svg">
<path d="M17.0363 2.57265H5.3042C5.21581 2.57265 5.14349 2.64498 5.14349 2.73337V3.85837C5.14349 3.94676 5.21581 4.01908 5.3042 4.01908H17.0363C17.1247 4.01908 17.1971 3.94676 17.1971 3.85837V2.73337C17.1971 2.64498 17.1247 2.57265 17.0363 2.57265ZM17.0363 8.27801H5.3042C5.21581 8.27801 5.14349 8.35033 5.14349 8.43873V9.56373C5.14349 9.65212 5.21581 9.72444 5.3042 9.72444H17.0363C17.1247 9.72444 17.1971 9.65212 17.1971 9.56373V8.43873C17.1971 8.35033 17.1247 8.27801 17.0363 8.27801ZM17.0363 13.9834H5.3042C5.21581 13.9834 5.14349 14.0557 5.14349 14.1441V15.2691C5.14349 15.3575 5.21581 15.4298 5.3042 15.4298H17.0363C17.1247 15.4298 17.1971 15.3575 17.1971 15.2691V14.1441C17.1971 14.0557 17.1247 13.9834 17.0363 13.9834ZM0.804199 3.29587C0.804199 3.44361 0.833298 3.5899 0.889835 3.72639C0.946371 3.86288 1.02924 3.9869 1.1337 4.09136C1.23817 4.19583 1.36219 4.2787 1.49868 4.33523C1.63517 4.39177 1.78146 4.42087 1.9292 4.42087C2.07694 4.42087 2.22323 4.39177 2.35972 4.33523C2.49621 4.2787 2.62023 4.19583 2.72469 4.09136C2.82916 3.9869 2.91203 3.86288 2.96856 3.72639C3.0251 3.5899 3.0542 3.44361 3.0542 3.29587C3.0542 3.14813 3.0251 3.00184 2.96856 2.86535C2.91203 2.72886 2.82916 2.60484 2.72469 2.50037C2.62023 2.39591 2.49621 2.31304 2.35972 2.2565C2.22323 2.19997 2.07694 2.17087 1.9292 2.17087C1.78146 2.17087 1.63517 2.19997 1.49868 2.2565C1.36219 2.31304 1.23817 2.39591 1.1337 2.50037C1.02924 2.60484 0.946371 2.72886 0.889835 2.86535C0.833298 3.00184 0.804199 3.14813 0.804199 3.29587V3.29587ZM0.804199 9.00123C0.804199 9.14896 0.833298 9.29525 0.889835 9.43175C0.946371 9.56824 1.02924 9.69225 1.1337 9.79672C1.23817 9.90119 1.36219 9.98405 1.49868 10.0406C1.63517 10.0971 1.78146 10.1262 1.9292 10.1262C2.07694 10.1262 2.22323 10.0971 2.35972 10.0406C2.49621 9.98405 2.62023 9.90119 2.72469 9.79672C2.82916 9.69225 2.91203 9.56824 2.96856 9.43175C3.0251 9.29525 3.0542 9.14896 3.0542 9.00123C3.0542 8.85349 3.0251 8.7072 2.96856 8.57071C2.91203 8.43422 2.82916 8.3102 2.72469 8.20573C2.62023 8.10126 2.49621 8.0184 2.35972 7.96186C2.22323 7.90532 2.07694 7.87623 1.9292 7.87623C1.78146 7.87623 1.63517 7.90532 1.49868 7.96186C1.36219 8.0184 1.23817 8.10126 1.1337 8.20573C1.02924 8.3102 0.946371 8.43422 0.889835 8.57071C0.833298 8.7072 0.804199 8.85349 0.804199 9.00123V9.00123ZM0.804199 14.7066C0.804199 14.8543 0.833298 15.0006 0.889835 15.1371C0.946371 15.2736 1.02924 15.3976 1.1337 15.5021C1.23817 15.6065 1.36219 15.6894 1.49868 15.7459C1.63517 15.8025 1.78146 15.8316 1.9292 15.8316C2.07694 15.8316 2.22323 15.8025 2.35972 15.7459C2.49621 15.6894 2.62023 15.6065 2.72469 15.5021C2.82916 15.3976 2.91203 15.2736 2.96856 15.1371C3.0251 15.0006 3.0542 14.8543 3.0542 14.7066C3.0542 14.5588 3.0251 14.4126 2.96856 14.2761C2.91203 14.1396 2.82916 14.0156 2.72469 13.9111C2.62023 13.8066 2.49621 13.7238 2.35972 13.6672C2.22323 13.6107 2.07694 13.5816 1.9292 13.5816C1.78146 13.5816 1.63517 13.6107 1.49868 13.6672C1.36219 13.7238 1.23817 13.8066 1.1337 13.9111C1.02924 14.0156 0.946371 14.1396 0.889835 14.2761C0.833298 14.4126 0.804199 14.5588 0.804199 14.7066V14.7066Z" fill="black" fill-opacity="0.85"/>
</svg>
